<?xml version="1.0" standalone="no"?>
<!DOCTYPE svg PUBLIC "-//W3C//DTD SVG 20010904//EN"
 "http://www.w3.org/TR/2001/REC-SVG-20010904/DTD/svg10.dtd">
<svg version="1.0" xmlns="http://www.w3.org/2000/svg"
 width="1091.000000pt" height="1091.000000pt" viewBox="0 0 1091.000000 1091.000000"
 preserveAspectRatio="xMidYMid meet">

<g transform="translate(0.000000,1091.000000) scale(0.100000,-0.100000)"
fill="#000000" stroke="none">
<path d="M5105 10889 c-1722 -111 -3283 -1029 -4227 -2484 -902 -1391 -1115
-3143 -574 -4720 351 -1025 1006 -1925 1881 -2585 1276 -962 2908 -1309 4485
-954 2114 476 3770 2212 4144 4344 272 1551 -117 3111 -1083 4335 -757 959
-1828 1645 -3005 1925 -521 124 -1094 173 -1621 139z m-918 -2188 c65 -29 134
-101 159 -166 18 -48 19 -86 19 -905 l0 -855 -26 -56 c-31 -66 -84 -120 -148
-151 l-46 -23 -840 -3 c-564 -2 -856 1 -890 8 -106 22 -201 120 -224 230 -9
41 -11 272 -9 885 l3 830 23 50 c40 88 118 152 209 174 21 5 408 9 878 8 l840
-2 52 -24z m4360 0 c65 -29 134 -101 159 -166 18 -49 19 -102 19 -1995 l0
-1945 -26 -55 c-43 -90 -109 -146 -201 -168 -35 -9 -538 -12 -1967 -12 -1909
0 -1921 0 -1975 -20 -66 -25 -130 -85 -159 -148 -22 -47 -22 -53 -27 -912 l-5
-865 -26 -56 c-31 -66 -80 -116 -146 -149 l-48 -25 -840 -3 c-564 -2 -856 1
-890 8 -106 22 -201 120 -224 230 -9 41 -11 293 -9 975 l3 920 24 50 c19 41
416 443 2135 2163 1161 1163 2131 2127 2156 2145 81 57 64 56 1070 54 l925 -2
52 -24z"/>
</g>
</svg>
