<?xml version="1.0" standalone="no"?>
<!DOCTYPE svg PUBLIC "-//W3C//DTD SVG 20010904//EN"
 "http://www.w3.org/TR/2001/REC-SVG-20010904/DTD/svg10.dtd">
<svg version="1.0" xmlns="http://www.w3.org/2000/svg"
 width="2338.000000pt" height="764.000000pt" viewBox="0 0 2338.000000 764.000000"
 preserveAspectRatio="xMidYMid meet">

<g transform="translate(0.000000,764.000000) scale(0.100000,-0.100000)"
fill="#000000" stroke="none">
<path d="M2712 4868 l3 -223 223 -3 222 -2 0 225 0 225 -225 0 -225 0 2 -222z"/>
<path d="M3397 4872 c-119 -119 -217 -221 -217 -225 0 -4 244 -7 543 -7 333 0
556 -4 578 -10 47 -13 124 -81 152 -134 l22 -41 3 -947 2 -948 231 0 230 0 -3
973 -3 972 -24 70 c-86 256 -270 432 -516 495 -71 18 -110 20 -429 20 l-351 0
-218 -218z"/>
<path d="M5560 3320 l0 -1770 225 0 225 0 0 504 0 505 813 3 c794 4 814 4 889
25 207 58 373 194 463 378 82 167 80 146 80 865 0 720 2 697 -82 870 -85 176
-264 320 -459 370 -75 19 -112 20 -1116 20 l-1038 0 0 -1770z m2063 1300 c64
-24 121 -78 151 -140 21 -44 21 -55 21 -650 0 -596 0 -606 -21 -650 -26 -54
-74 -104 -128 -133 -41 -22 -42 -22 -838 -25 l-798 -2 0 810 0 810 780 0 c757
0 781 -1 833 -20z"/>
<path d="M9338 5075 c-261 -64 -464 -263 -535 -525 -16 -59 -18 -123 -18 -720
0 -735 -2 -709 74 -865 92 -186 256 -319 466 -377 79 -22 86 -23 805 -23 655
0 731 2 792 17 252 65 443 241 526 485 l27 78 0 685 0 685 -28 80 c-78 223
-244 388 -464 463 l-78 27 -755 2 c-617 1 -765 -1 -812 -12z m1498 -450 c65
-19 131 -76 160 -139 l24 -51 0 -605 c0 -587 -1 -606 -21 -650 -29 -64 -84
-117 -146 -140 -52 -19 -79 -20 -714 -20 -438 0 -675 4 -703 11 -61 15 -134
75 -165 134 l-26 50 -3 590 c-2 403 1 604 8 634 22 86 86 154 179 187 57 21
1338 20 1407 -1z"/>
<path d="M12022 3828 l3 -1263 223 -3 222 -2 0 1040 0 1040 425 0 425 0 0
-1040 0 -1040 225 0 225 0 0 1040 0 1040 323 0 c361 0 369 -2 440 -74 78 -81
72 2 75 -1058 l2 -948 225 0 226 0 -3 978 -3 977 -23 70 c-77 229 -238 392
-472 477 l-65 23 -1238 3 -1237 2 2 -1262z"/>
<path d="M15580 4865 l0 -225 788 -2 787 -3 41 -22 c56 -30 103 -79 128 -133
19 -40 21 -67 24 -242 l4 -198 -439 0 -438 0 -225 -225 -225 -225 660 -2 660
-3 0 -181 0 -181 -30 -59 c-33 -64 -95 -115 -163 -134 -24 -6 -313 -10 -804
-10 l-768 0 0 -231 0 -230 803 4 c868 4 847 2 980 59 152 64 295 197 365 340
80 162 77 132 77 863 0 733 2 714 -77 875 -58 117 -186 247 -305 308 -164 85
-129 82 -1040 82 l-803 0 0 -225z"/>
<path d="M18440 3825 l0 -1265 225 0 225 0 0 510 0 511 573 -3 572 -3 36 -22
c55 -34 89 -73 115 -128 24 -50 24 -51 24 -457 l0 -408 231 0 230 0 -3 443
c-4 431 -4 444 -27 512 -85 256 -267 430 -520 497 -63 16 -120 21 -330 25
l-253 6 523 523 524 524 -315 0 -315 0 -525 -525 c-289 -289 -528 -525 -532
-525 -5 0 -8 236 -8 525 l0 525 -225 0 -225 0 0 -1265z"/>
<path d="M2932 4407 l-222 -222 0 -813 0 -812 225 0 225 0 0 1035 c0 569 -1
1035 -3 1035 -1 0 -102 -100 -225 -223z"/>
<path d="M2720 714 l0 -455 268 3 267 3 52 27 c182 97 172 351 -17 437 -40 19
-65 21 -247 21 l-203 0 0 145 0 145 280 0 280 0 0 65 0 65 -340 0 -340 0 0
-456z m530 -102 c76 -38 88 -135 24 -192 l-35 -30 -199 0 -200 0 0 120 0 120
188 0 c158 0 192 -3 222 -18z"/>
<path d="M3680 908 c-38 -14 -75 -41 -117 -83 -53 -53 -64 -71 -83 -134 -40
-131 -5 -266 92 -357 76 -71 124 -89 243 -89 89 0 106 3 150 26 28 15 61 36
75 47 l25 21 -39 40 c-40 41 -40 41 -61 21 -72 -68 -226 -67 -309 1 -37 31
-76 101 -76 137 l0 22 270 0 270 0 0 58 c0 81 -24 143 -77 202 -66 73 -129
103 -228 107 -64 2 -91 -1 -135 -19z m218 -109 c42 -21 102 -88 102 -116 0
-10 -40 -13 -205 -13 -113 0 -205 2 -205 5 0 34 70 107 125 131 47 21 132 17
183 -7z"/>
<path d="M4422 915 c-89 -27 -149 -90 -159 -164 l-6 -41 57 0 c49 0 56 3 56
19 0 31 45 76 88 89 81 25 186 9 228 -33 33 -33 32 -84 -2 -116 -23 -21 -36
-24 -135 -27 l-109 -4 0 -53 0 -53 109 -4 c99 -3 112 -6 135 -27 34 -32 35
-83 2 -116 -41 -41 -146 -57 -228 -35 -40 12 -88 61 -88 91 0 16 -7 19 -56 19
l-57 0 6 -41 c16 -118 139 -187 313 -177 127 8 224 70 240 154 13 68 -1 116
-44 154 l-39 35 40 35 c34 31 40 42 44 86 3 29 0 68 -7 88 -15 46 -77 99 -141
119 -62 20 -186 21 -247 2z"/>
<path d="M5193 916 c-92 -30 -167 -99 -211 -195 -38 -80 -37 -192 0 -273 35
-75 98 -141 167 -175 49 -25 67 -28 151 -28 85 0 101 3 153 29 71 36 130 99
165 174 21 46 26 72 26 137 0 65 -5 91 -26 137 -59 127 -165 199 -303 205 -49
2 -96 -2 -122 -11z m215 -122 c171 -85 171 -333 0 -418 -132 -66 -284 -4 -333
133 -54 153 61 311 225 311 40 0 71 -7 108 -26z"/>
<path d="M6753 916 c-91 -29 -167 -98 -211 -195 -22 -46 -26 -71 -26 -136 0
-96 28 -167 94 -239 109 -118 306 -141 439 -50 46 31 51 30 51 -6 0 -30 1 -30
55 -30 l55 0 0 325 0 325 -55 0 c-54 0 -55 0 -55 -30 0 -36 -5 -37 -50 -6 -79
53 -203 71 -297 42z m215 -122 c171 -85 171 -333 0 -418 -132 -66 -284 -4
-333 133 -54 153 61 311 225 311 40 0 71 -7 108 -26z"/>
<path d="M7593 916 c-91 -29 -167 -98 -211 -195 -22 -46 -26 -71 -26 -136 0
-96 28 -167 94 -239 113 -122 307 -141 448 -44 l44 30 -40 41 c-39 39 -42 40
-59 24 -59 -53 -169 -62 -251 -21 -59 29 -94 70 -117 133 -53 152 61 311 222
311 56 0 114 -19 146 -47 17 -16 20 -15 59 24 l40 41 -43 30 c-87 59 -208 78
-306 48z"/>
<path d="M9033 916 c-92 -30 -167 -99 -211 -195 -38 -80 -37 -192 0 -273 35
-75 98 -141 167 -175 49 -25 67 -28 151 -28 85 0 101 3 153 29 71 36 130 99
165 174 21 46 26 72 26 137 0 65 -5 91 -26 137 -59 127 -165 199 -303 205 -49
2 -96 -2 -122 -11z m215 -122 c171 -85 171 -333 0 -418 -132 -66 -284 -4 -333
133 -54 153 61 311 225 311 40 0 71 -7 108 -26z"/>
<path d="M9853 916 c-91 -29 -167 -98 -211 -195 -22 -46 -26 -71 -26 -136 0
-96 28 -167 94 -239 113 -122 307 -141 448 -44 l44 30 -40 41 c-39 39 -42 40
-59 24 -59 -53 -169 -62 -251 -21 -59 29 -94 70 -117 133 -53 152 61 311 222
311 56 0 114 -19 146 -47 17 -16 20 -15 59 24 l40 41 -43 30 c-87 59 -208 78
-306 48z"/>
<path d="M13243 916 c-92 -30 -167 -99 -211 -195 -38 -80 -37 -192 0 -273 35
-75 98 -141 167 -175 49 -25 67 -28 151 -28 85 0 101 3 153 29 71 36 130 99
165 174 21 46 26 72 26 137 0 65 -5 91 -26 137 -59 127 -165 199 -303 205 -49
2 -96 -2 -122 -11z m215 -122 c171 -85 171 -333 0 -418 -132 -66 -284 -4 -333
133 -54 153 61 311 225 311 40 0 71 -7 108 -26z"/>
<path d="M15360 908 c-38 -14 -75 -41 -117 -83 -53 -53 -64 -71 -83 -134 -40
-131 -5 -266 92 -357 76 -71 124 -89 243 -89 89 0 106 3 150 26 28 15 61 36
75 47 l25 21 -39 40 c-40 41 -40 41 -61 21 -72 -68 -226 -67 -309 1 -37 31
-76 101 -76 137 l0 22 270 0 270 0 0 58 c0 81 -24 143 -77 202 -66 73 -129
103 -228 107 -64 2 -91 -1 -135 -19z m218 -109 c42 -21 102 -88 102 -116 0
-10 -40 -13 -205 -13 -113 0 -205 2 -205 5 0 34 70 107 125 131 47 21 132 17
183 -7z"/>
<path d="M16173 916 c-91 -29 -167 -98 -211 -195 -22 -46 -26 -71 -26 -136 0
-96 28 -167 94 -239 113 -122 307 -141 448 -44 l44 30 -40 41 c-39 39 -42 40
-59 24 -59 -53 -169 -62 -251 -21 -59 29 -94 70 -117 133 -53 152 61 311 222
311 56 0 114 -19 146 -47 17 -16 20 -15 59 24 l40 41 -43 30 c-87 59 -208 78
-306 48z"/>
<path d="M18553 916 c-92 -30 -167 -99 -211 -195 -38 -80 -37 -192 0 -273 35
-75 98 -141 167 -175 49 -25 67 -28 151 -28 85 0 101 3 153 29 71 36 130 99
165 174 21 46 26 72 26 137 0 65 -5 91 -26 137 -59 127 -165 199 -303 205 -49
2 -96 -2 -122 -11z m215 -122 c171 -85 171 -333 0 -418 -132 -66 -284 -4 -333
133 -54 153 61 311 225 311 40 0 71 -7 108 -26z"/>
<path d="M5800 585 l0 -325 55 0 55 0 0 270 0 270 173 -2 172 -3 3 -267 2
-268 55 0 55 0 0 325 0 325 -285 0 -285 0 0 -325z"/>
<path d="M8080 585 l0 -325 55 0 55 0 0 135 0 135 175 0 175 0 0 -135 0 -135
55 0 55 0 0 325 0 325 -55 0 -55 0 0 -135 0 -135 -175 0 -175 0 0 135 0 135
-55 0 -55 0 0 -325z"/>
<path d="M10340 585 l0 -325 55 0 55 0 0 270 0 270 110 0 110 0 0 -270 0 -270
55 0 55 0 2 268 3 267 108 3 107 3 0 -271 0 -270 55 0 55 0 0 325 0 325 -385
0 -385 0 0 -325z"/>
<path d="M11280 584 l0 -326 178 4 c161 3 181 5 219 26 117 62 137 234 38 321
-47 40 -91 51 -217 51 l-108 0 0 125 0 125 -55 0 -55 0 0 -326z m359 -60 c39
-33 42 -80 7 -121 -24 -27 -27 -28 -140 -31 l-116 -4 0 91 0 91 109 0 c103 0
111 -1 140 -26z"/>
<path d="M12280 585 l0 -325 55 0 55 0 0 270 0 270 173 -2 172 -3 3 -267 2
-268 55 0 55 0 0 325 0 325 -285 0 -285 0 0 -325z"/>
<path d="M14480 753 c0 -170 5 -191 53 -227 25 -18 45 -21 192 -24 l165 -4 0
-119 0 -119 55 0 55 0 0 325 0 325 -55 0 -55 0 0 -151 0 -151 -140 4 c-97 2
-143 7 -152 16 -9 9 -14 55 -16 147 l-4 135 -49 0 -49 0 0 -157z"/>
<path d="M16660 585 l0 -325 55 0 55 0 0 270 0 270 110 0 110 0 0 -270 0 -270
55 0 55 0 2 268 3 267 108 3 107 3 0 -271 0 -270 55 0 55 0 0 325 0 325 -385
0 -385 0 0 -325z"/>
<path d="M17600 585 l0 -325 55 0 55 0 0 135 0 135 175 0 175 0 0 -135 0 -135
55 0 55 0 0 325 0 325 -55 0 -55 0 0 -135 0 -135 -175 0 -175 0 0 135 0 135
-55 0 -55 0 0 -325z"/>
<path d="M19150 585 l0 -325 55 0 55 0 0 276 c0 151 3 273 8 271 4 -3 43 -82
87 -176 l80 -170 76 -1 75 0 86 178 86 177 1 -277 1 -278 55 0 55 0 0 325 0
325 -93 0 -94 0 -83 -180 c-46 -99 -87 -177 -91 -173 -4 5 -43 85 -87 178
l-79 170 -97 3 -96 3 0 -326z"/>
<path d="M20008 878 c60 -100 282 -499 282 -507 0 -5 -38 -90 -85 -187 -47
-97 -85 -178 -85 -180 0 -2 26 -4 59 -4 l58 0 213 448 c117 246 215 451 217
455 3 4 -23 7 -57 5 l-63 -3 -95 -202 c-53 -112 -98 -203 -101 -203 -4 0 -58
93 -121 205 l-114 205 -64 0 -64 0 20 -32z"/>
<path d="M13830 625 l0 -55 250 0 250 0 0 55 0 55 -250 0 -250 0 0 -55z"/>
</g>
</svg>
