<?xml version="1.0" standalone="no"?>
<!DOCTYPE svg PUBLIC "-//W3C//DTD SVG 20010904//EN"
 "http://www.w3.org/TR/2001/REC-SVG-20010904/DTD/svg10.dtd">
<svg version="1.0" xmlns="http://www.w3.org/2000/svg"
 width="1796.000000pt" height="510.000000pt" viewBox="0 0 1796.000000 510.000000"
 preserveAspectRatio="xMidYMid meet">

<g transform="translate(0.000000,510.000000) scale(0.100000,-0.100000)"
fill="#000000" stroke="none">
<path d="M0 4875 l0 -225 225 0 225 0 0 225 0 225 -225 0 -225 0 0 -225z"/>
<path d="M691 4876 l-225 -225 550 -3 c536 -3 550 -4 594 -24 54 -26 104 -74
133 -128 l22 -41 3 -947 2 -948 230 0 231 0 -3 968 c-4 1082 1 1007 -78 1167
-70 143 -189 260 -335 330 -130 63 -163 67 -550 72 l-350 4 -224 -225z"/>
<path d="M2840 3325 l0 -1775 225 0 225 0 0 504 0 505 818 3 c798 4 819 4 894
25 257 72 453 269 518 523 18 70 20 115 20 717 0 726 1 711 -76 872 -38 77
-60 108 -127 176 -127 128 -266 195 -440 215 -46 6 -519 10 -1069 10 l-988 0
0 -1775z m2085 1291 c62 -28 111 -77 139 -136 21 -44 21 -54 21 -640 0 -451
-3 -605 -13 -637 -19 -63 -92 -138 -158 -163 -54 -20 -68 -20 -837 -18 l-782
3 -3 808 -2 807 792 0 793 0 50 -24z"/>
<path d="M6704 5090 c-92 -13 -141 -28 -229 -70 -151 -73 -265 -191 -339 -352
-64 -138 -66 -159 -66 -838 0 -694 1 -702 75 -855 95 -196 254 -327 470 -387
79 -22 85 -23 805 -23 720 0 726 1 805 23 216 60 375 191 470 387 74 153 75
161 75 857 0 665 -2 686 -57 818 -69 169 -194 299 -360 376 -147 69 -124 67
-893 70 -382 1 -723 -2 -756 -6z m1429 -466 c68 -23 132 -84 156 -150 20 -53
21 -74 21 -643 0 -650 1 -641 -64 -717 -18 -22 -55 -50 -82 -64 l-49 -25 -695
0 -695 0 -49 25 c-27 14 -64 42 -82 64 -65 76 -64 67 -64 717 0 569 1 590 21
643 24 64 87 127 152 150 65 23 1362 23 1430 0z"/>
<path d="M9310 3830 l0 -1270 225 0 225 0 2 1043 3 1042 420 0 420 0 3 -1042
2 -1043 225 0 225 0 0 1046 0 1045 318 -3 c299 -3 320 -4 362 -24 54 -26 104
-74 133 -128 l22 -41 3 -947 2 -948 225 0 225 0 0 940 c0 1044 1 1024 -66
1168 -74 161 -187 279 -339 352 -162 79 -65 74 -1422 77 l-1213 4 0 -1271z"/>
<path d="M12870 4871 l0 -231 778 0 777 0 50 -24 c63 -29 112 -77 139 -136 18
-39 21 -70 24 -242 l4 -198 -439 0 -438 0 -225 -225 -225 -225 660 -2 660 -3
-1 -180 c-1 -204 -6 -225 -74 -299 -28 -30 -60 -52 -96 -66 -53 -19 -75 -20
-824 -20 l-770 0 0 -231 0 -230 803 3 c789 4 803 4 881 26 253 71 453 271 516
518 19 73 20 113 20 724 0 732 1 724 -81 880 -90 174 -247 300 -450 362 -74
22 -78 22 -881 26 l-808 3 0 -230z"/>
<path d="M15730 3830 l0 -1270 225 0 225 0 2 513 3 512 510 3 c555 3 614 -1
680 -46 56 -39 101 -103 114 -162 7 -32 11 -195 11 -435 l0 -385 230 0 230 0
0 378 c0 208 -5 415 -10 460 -20 158 -86 296 -194 411 -97 101 -197 161 -337
202 -64 18 -108 22 -333 26 l-258 6 528 528 529 529 -320 0 -320 0 -532 -532
-533 -533 0 533 0 532 -225 0 -225 0 0 -1270z"/>
<path d="M222 4407 l-222 -222 0 -813 0 -812 225 0 225 0 0 1035 c0 569 -1
1035 -3 1035 -1 0 -102 -100 -225 -223z"/>
<path d="M10 714 l0 -455 268 3 c302 3 325 8 391 83 46 52 61 93 61 163 0 100
-44 173 -131 217 -47 24 -55 25 -259 25 l-210 0 0 150 0 150 285 0 285 0 0 60
0 60 -345 0 -345 0 0 -456z m540 -99 c79 -41 79 -169 0 -210 -23 -12 -69 -15
-225 -15 l-195 0 0 120 0 120 195 0 c156 0 202 -3 225 -15z"/>
<path d="M1017 930 c-99 -25 -191 -103 -235 -198 -21 -47 -26 -72 -26 -137 1
-144 69 -259 191 -320 53 -27 67 -30 158 -30 89 0 106 3 156 27 31 16 64 37
74 48 19 20 18 21 -16 56 l-35 35 -58 -31 c-99 -51 -210 -39 -284 33 -38 36
-72 96 -72 127 0 20 5 20 276 20 l277 0 -5 68 c-12 168 -137 296 -301 307 -34
2 -79 0 -100 -5z m189 -135 c37 -22 94 -93 94 -118 0 -4 -94 -7 -210 -7 -116
0 -210 2 -210 5 0 39 92 128 148 144 55 15 128 5 178 -24z"/>
<path d="M1730 924 c-30 -8 -73 -27 -95 -42 -42 -28 -85 -99 -85 -139 0 -21 4
-23 53 -23 49 0 53 3 67 32 26 55 61 73 154 76 68 3 90 0 123 -17 49 -24 72
-69 55 -106 -21 -46 -57 -59 -169 -63 l-103 -4 0 -54 0 -54 103 0 c83 0 108
-4 134 -19 61 -38 50 -114 -21 -150 -40 -19 -134 -25 -185 -11 -50 13 -101 58
-101 89 0 19 -6 21 -55 21 -52 0 -55 -1 -55 -25 0 -73 76 -155 169 -182 73
-21 209 -14 271 14 115 52 162 175 100 263 -10 14 -29 32 -43 39 l-25 13 43
42 c50 47 63 91 46 154 -34 126 -207 192 -381 146z"/>
<path d="M2517 930 c-106 -27 -192 -98 -241 -200 -27 -57 -31 -76 -30 -146 0
-71 4 -90 32 -147 60 -121 161 -187 297 -195 65 -3 91 0 137 18 76 28 159 104
195 178 25 50 28 68 28 152 0 89 -2 99 -34 158 -40 74 -94 125 -165 158 -58
26 -162 38 -219 24z m180 -129 c49 -25 98 -76 117 -123 33 -77 11 -194 -47
-257 -35 -38 -115 -71 -175 -71 -64 0 -116 20 -160 63 -71 68 -94 151 -68 242
41 141 204 213 333 146z"/>
<path d="M4067 930 c-106 -27 -192 -98 -241 -200 -27 -57 -31 -76 -30 -146 0
-71 4 -90 32 -147 56 -114 160 -186 283 -195 82 -6 153 11 214 49 25 16 48 29
50 29 3 0 5 -13 5 -30 0 -30 1 -30 55 -30 l55 0 0 325 0 325 -54 0 c-54 0 -55
-1 -58 -31 l-3 -31 -28 22 c-64 51 -200 80 -280 60z m180 -129 c49 -25 98 -76
117 -123 33 -77 11 -194 -47 -257 -35 -38 -115 -71 -175 -71 -64 0 -116 20
-160 63 -71 68 -94 151 -68 242 41 141 204 213 333 146z"/>
<path d="M4917 930 c-106 -27 -192 -98 -241 -200 -27 -57 -31 -76 -30 -146 0
-71 4 -90 32 -147 36 -73 95 -132 170 -168 39 -20 63 -24 142 -24 84 0 102 3
151 27 31 16 64 37 74 48 19 20 18 21 -16 56 l-35 35 -58 -31 c-97 -50 -200
-38 -274 33 -102 97 -105 245 -7 342 86 87 229 95 316 19 13 -12 20 -8 55 27
l39 40 -25 20 c-73 59 -206 90 -293 69z"/>
<path d="M6357 930 c-106 -27 -192 -98 -241 -200 -27 -57 -31 -76 -30 -146 0
-71 4 -90 32 -147 60 -121 161 -187 297 -195 65 -3 91 0 137 18 76 28 159 104
195 178 25 50 28 68 28 152 0 89 -2 99 -34 158 -40 74 -94 125 -165 158 -58
26 -162 38 -219 24z m180 -129 c49 -25 98 -76 117 -123 33 -77 11 -194 -47
-257 -35 -38 -115 -71 -175 -71 -64 0 -116 20 -160 63 -71 68 -94 151 -68 242
41 141 204 213 333 146z"/>
<path d="M7177 930 c-106 -27 -192 -98 -241 -200 -27 -57 -31 -76 -30 -146 0
-71 4 -90 32 -147 36 -73 95 -132 170 -168 39 -20 63 -24 142 -24 84 0 102 3
151 27 31 16 64 37 74 48 19 20 18 21 -16 56 l-35 35 -58 -31 c-97 -50 -200
-38 -274 33 -102 97 -105 245 -7 342 86 87 229 95 316 19 13 -12 20 -8 55 27
l39 40 -25 20 c-73 59 -206 90 -293 69z"/>
<path d="M10557 930 c-106 -27 -192 -98 -241 -200 -27 -57 -31 -76 -30 -146 0
-71 4 -90 32 -147 60 -121 161 -187 297 -195 65 -3 91 0 137 18 76 28 159 104
195 178 25 50 28 68 28 152 0 89 -2 99 -34 158 -40 74 -94 125 -165 158 -58
26 -162 38 -219 24z m180 -129 c49 -25 98 -76 117 -123 33 -77 11 -194 -47
-257 -35 -38 -115 -71 -175 -71 -64 0 -116 20 -160 63 -71 68 -94 151 -68 242
41 141 204 213 333 146z"/>
<path d="M12697 930 c-99 -25 -191 -103 -235 -198 -21 -47 -26 -72 -26 -137 1
-144 69 -259 191 -320 53 -27 67 -30 158 -30 89 0 106 3 156 27 31 16 64 37
74 48 19 20 18 21 -16 56 l-35 35 -58 -31 c-99 -51 -210 -39 -284 33 -38 36
-72 96 -72 127 0 20 5 20 276 20 l277 0 -5 68 c-12 168 -137 296 -301 307 -34
2 -79 0 -100 -5z m189 -135 c37 -22 94 -93 94 -118 0 -4 -94 -7 -210 -7 -115
0 -210 2 -210 5 0 39 92 128 148 144 55 15 128 5 178 -24z"/>
<path d="M13497 930 c-106 -27 -192 -98 -241 -200 -27 -57 -31 -76 -30 -146 0
-71 4 -90 32 -147 36 -73 95 -132 170 -168 39 -20 63 -24 142 -24 84 0 102 3
151 27 31 16 64 37 74 48 19 20 18 21 -16 56 l-35 35 -58 -31 c-97 -50 -200
-38 -274 33 -102 97 -105 245 -7 342 86 87 229 95 316 19 13 -12 20 -8 55 27
l39 40 -25 20 c-73 59 -206 90 -293 69z"/>
<path d="M15877 930 c-106 -27 -192 -98 -241 -200 -27 -57 -31 -76 -30 -146 0
-71 4 -90 32 -147 60 -121 161 -187 297 -195 65 -3 91 0 137 18 76 28 159 104
195 178 25 50 28 68 28 152 0 89 -2 99 -34 158 -40 74 -94 125 -165 158 -58
26 -162 38 -219 24z m180 -129 c49 -25 98 -76 117 -123 33 -77 11 -194 -47
-257 -35 -38 -115 -71 -175 -71 -64 0 -116 20 -160 63 -71 68 -94 151 -68 242
41 141 204 213 333 146z"/>
<path d="M3080 585 l0 -325 55 0 55 0 0 270 0 270 175 0 175 0 0 -270 0 -270
55 0 55 0 0 325 0 325 -285 0 -285 0 0 -325z"/>
<path d="M5370 585 l0 -325 55 0 55 0 0 135 0 135 175 0 175 0 0 -135 0 -135
55 0 55 0 0 325 0 325 -55 0 -55 0 0 -135 0 -135 -172 2 -173 3 -3 133 -3 132
-54 0 -55 0 0 -325z"/>
<path d="M7630 585 l0 -325 55 0 55 0 0 270 0 270 115 0 115 0 0 -270 0 -270
55 0 55 0 0 270 0 270 110 0 110 0 0 -270 0 -270 55 0 55 0 0 325 0 325 -390
0 -390 0 0 -325z"/>
<path d="M8570 585 l0 -325 156 0 c191 0 234 10 290 65 94 94 68 257 -48 314
-38 18 -62 21 -166 21 l-122 0 0 125 0 125 -55 0 -55 0 0 -325z m365 -60 c35
-34 34 -93 -1 -126 -24 -22 -33 -24 -137 -24 l-112 0 -3 88 -3 87 116 0 c110
0 117 -1 140 -25z"/>
<path d="M9570 585 l0 -325 55 0 55 0 0 270 0 270 175 0 175 0 0 -270 0 -270
55 0 55 0 0 325 0 325 -285 0 -285 0 0 -325z"/>
<path d="M11760 755 c0 -240 5 -245 250 -245 l160 0 0 -125 0 -125 60 0 60 0
0 325 0 325 -60 0 -60 0 0 -145 0 -145 -138 0 c-94 0 -142 4 -150 12 -8 8 -12
55 -12 145 l0 133 -55 0 -55 0 0 -155z"/>
<path d="M13950 585 l0 -325 55 0 55 0 0 270 0 270 115 0 115 0 0 -270 0 -270
55 0 55 0 0 270 0 270 110 0 110 0 0 -270 0 -270 55 0 55 0 0 325 0 325 -390
0 -390 0 0 -325z"/>
<path d="M14890 585 l0 -325 55 0 55 0 0 135 0 135 175 0 175 0 0 -135 0 -135
55 0 55 0 0 325 0 325 -55 0 -55 0 0 -135 0 -135 -172 2 -173 3 -3 133 -3 132
-54 0 -55 0 0 -325z"/>
<path d="M16440 585 l0 -325 55 0 55 0 0 275 c0 151 3 275 8 275 4 0 44 -78
88 -173 l81 -172 78 0 78 0 81 172 c44 95 84 173 89 173 4 0 7 -124 7 -275 l0
-275 55 0 55 0 0 325 0 325 -98 0 -97 0 -68 -147 c-38 -82 -76 -163 -86 -181
l-17 -34 -85 181 -84 181 -97 0 -98 0 0 -325z"/>
<path d="M17293 897 c3 -7 70 -128 149 -268 l145 -256 -87 -184 -88 -184 56
-3 c30 -2 58 1 63 5 6 6 408 847 426 891 4 9 -11 12 -54 12 l-60 0 -99 -207
-100 -208 -118 208 -117 207 -61 0 c-45 0 -59 -3 -55 -13z"/>
<path d="M11120 625 l0 -55 250 0 250 0 0 55 0 55 -250 0 -250 0 0 -55z"/>
</g>
</svg>
